# Blender v2.74 (sub 0) OBJ File: ''
# www.blender.org
mtllib new-arrow.mtl
o Polygon_3_Polygon_2
v -0.000001 27.124668 7.668869
v -0.000001 27.111000 7.907340
v -0.000001 27.074558 7.907340
v -0.000001 27.051788 1.813110
v -0.000001 27.120110 2.131071
v -0.000001 23.913549 -0.165310
v -0.000001 26.965248 7.827850
v -0.000001 25.270880 6.803310
v -0.000001 27.142889 6.578090
v -0.000001 27.079121 1.861688
v -0.000001 27.101891 1.958842
v -0.000001 27.138329 2.797900
v -0.000000 18.393169 2.581513
v -0.000000 17.263588 -4.325280
v -0.000001 22.824959 -0.836550
v 0.000000 17.181601 1.861688
v 0.000001 7.165699 1.852855
v 0.000001 12.895559 4.414200
v 0.000001 7.142900 5.792020
v 0.000000 17.054068 -4.369440
v 0.000000 17.117834 -4.400350
v 0.000001 8.008289 7.425980
v 0.000000 15.988249 2.537352
v 0.000001 7.142900 7.028530
v 0.000001 7.179299 7.810190
v 0.000001 7.224870 7.889680
v 0.000001 7.197499 7.876430
v 0.000001 7.161099 7.660040
v 0.000000 17.081396 1.892601
v 0.000000 17.122389 1.861688
v -0.000000 17.313690 1.945594
v -0.300001 27.074558 7.907340
v -0.300001 27.111000 7.907340
v -0.300001 27.124668 7.668869
v -0.300001 23.913549 -0.165310
v -0.300001 27.120110 2.131071
v -0.300001 27.051788 1.813110
v -0.300001 27.142889 6.578090
v -0.300001 25.270880 6.803310
v -0.300001 26.965248 7.827850
v -0.300001 27.101891 1.958842
v -0.300001 27.079121 1.861688
v -0.300001 27.138329 2.797900
v -0.300000 18.393169 2.581513
v -0.300000 17.181601 1.861688
v -0.300001 22.824959 -0.836550
v -0.300000 17.263586 -4.325280
v -0.299999 7.142900 5.792020
v -0.299999 12.895559 4.414200
v -0.299999 7.165699 1.852855
v -0.300000 17.117834 -4.400350
v -0.300000 17.054068 -4.369440
v -0.299999 8.008289 7.425980
v -0.300000 15.988249 2.537352
v -0.299999 7.142900 7.028530
v -0.299999 7.197499 7.876430
v -0.299999 7.224870 7.889680
v -0.299999 7.179299 7.810190
v -0.299999 7.161099 7.660040
v -0.300000 17.081396 1.892601
v -0.300000 17.122389 1.861688
v -0.300000 17.313690 1.945594
vn 1.000000 0.000000 0.000000
vn -1.000000 -0.000000 0.000000
vn 0.000000 0.998400 0.057200
vn 0.000000 0.999900 0.016700
vn 0.000000 1.000000 -0.001200
vn 0.000000 0.999600 -0.027300
vn 0.000000 0.994500 -0.105200
vn 0.000000 0.994400 -0.105200
vn 0.000000 0.973600 -0.228200
vn 0.000000 0.871500 -0.490400
vn 0.000000 0.533300 -0.845900
vn 0.000000 0.524900 -0.851200
vn -0.000000 0.531400 -0.847100
vn -0.000000 0.457900 -0.889000
vn 0.000000 -0.436200 -0.899800
vn 0.000000 -0.436200 -0.899900
vn 0.000000 -0.532600 -0.846400
vn 0.000000 -1.000000 -0.005800
vn 0.000000 -1.000000 0.000000
vn 0.000000 -0.999600 0.028800
vn 0.000000 -0.992700 0.120300
vn 0.000000 -0.964300 0.264900
vn 0.000000 -0.436200 0.899900
vn 0.000000 0.509400 0.860600
vn 0.000000 0.524600 0.851300
vn 0.000000 0.518800 0.854900
vn 0.000000 0.508000 0.861300
vn 0.000000 0.602100 0.798400
vn 0.000000 0.000000 1.000000
vn 0.000000 -0.536200 0.844100
vn 0.000000 -0.507600 0.861600
vn 0.000000 -0.523100 0.852200
vn 0.000000 -0.517400 0.855700
vn 0.000000 -0.588100 0.808800
usemtl f2aa3d
s 1
f 1//1 2//1 3//1
f 4//1 5//1 6//1
f 7//1 8//1 9//1
f 10//1 11//1 4//1
f 4//1 11//1 5//1
f 6//1 5//1 12//1
f 13//1 6//1 8//1
f 14//1 15//1 16//1
f 17//1 18//1 19//1
f 14//1 20//1 21//1
f 19//1 18//1 22//1
f 17//1 23//1 18//1
f 22//1 24//1 19//1
f 25//1 26//1 27//1
f 25//1 28//1 26//1
f 26//1 28//1 22//1
f 13//1 15//1 6//1
f 22//1 28//1 24//1
f 17//1 20//1 23//1
f 23//1 20//1 29//1
f 29//1 20//1 30//1
f 16//1 30//1 14//1
f 30//1 20//1 14//1
f 31//1 15//1 13//1
f 16//1 15//1 31//1
f 8//1 12//1 9//1
f 6//1 12//1 8//1
f 3//1 7//1 1//1
f 7//1 9//1 1//1
f 32//2 33//2 34//2
f 35//2 36//2 37//2
f 38//2 39//2 40//2
f 37//2 41//2 42//2
f 36//2 41//2 37//2
f 43//2 36//2 35//2
f 39//2 35//2 44//2
f 45//2 46//2 47//2
f 48//2 49//2 50//2
f 51//2 52//2 47//2
f 53//2 49//2 48//2
f 49//2 54//2 50//2
f 48//2 55//2 53//2
f 56//2 57//2 58//2
f 57//2 59//2 58//2
f 53//2 59//2 57//2
f 35//2 46//2 44//2
f 55//2 59//2 53//2
f 54//2 52//2 50//2
f 60//2 52//2 54//2
f 61//2 52//2 60//2
f 47//2 61//2 45//2
f 47//2 52//2 61//2
f 44//2 46//2 62//2
f 62//2 46//2 45//2
f 38//2 43//2 39//2
f 39//2 43//2 35//2
f 34//2 40//2 32//2
f 34//2 38//2 40//2
f 1//3 33//3 2//3
f 1//3 34//3 33//3
f 9//4 34//4 1//4
f 9//4 38//4 34//4
f 12//5 38//5 9//5
f 12//5 43//5 38//5
f 5//6 43//6 12//6
f 5//6 36//6 43//6
f 11//7 36//7 5//7
f 11//7 41//8 36//7
f 10//9 41//9 11//9
f 10//9 42//9 41//9
f 4//10 42//10 10//10
f 4//10 37//10 42//10
f 6//11 37//11 4//11
f 6//11 35//11 37//11
f 15//12 35//12 6//12
f 15//12 46//12 35//12
f 14//13 46//13 15//13
f 14//13 47//13 46//13
f 21//14 47//14 14//14
f 21//14 51//14 47//14
f 20//15 51//15 21//15
f 20//15 52//16 51//15
f 17//17 52//17 20//17
f 17//17 50//17 52//17
f 19//18 50//18 17//18
f 19//18 48//18 50//18
f 24//19 48//19 19//19
f 24//19 55//19 48//19
f 28//20 55//20 24//20
f 28//20 59//20 55//20
f 25//21 59//21 28//21
f 25//21 58//21 59//21
f 27//22 58//22 25//22
f 27//22 56//22 58//22
f 26//23 56//23 27//23
f 26//23 57//23 56//23
f 22//24 57//24 26//24
f 22//24 53//24 57//24
f 18//25 53//25 22//25
f 18//25 49//25 53//25
f 23//26 49//26 18//26
f 23//26 54//26 49//26
f 29//27 54//27 23//27
f 29//27 60//27 54//27
f 30//28 60//28 29//28
f 30//28 61//28 60//28
f 16//29 61//29 30//29
f 16//29 45//29 61//29
f 31//30 45//30 16//30
f 31//30 62//30 45//30
f 13//31 62//31 31//31
f 13//31 44//31 62//31
f 8//32 44//32 13//32
f 8//32 39//32 44//32
f 7//33 39//33 8//33
f 7//33 40//33 39//33
f 3//34 40//34 7//34
f 3//34 32//34 40//34
f 2//29 32//29 3//29
f 2//29 33//29 32//29
o Polygon_4_Polygon_2
v -0.000001 27.124668 16.485069
v -0.000001 27.111000 16.723541
v -0.000001 27.074558 16.723541
v -0.000001 27.051788 10.629312
v -0.000001 27.120110 10.947271
v -0.000001 23.913549 8.650890
v -0.000001 26.965248 16.644051
v -0.000001 25.270880 15.619511
v -0.000001 27.142889 15.394291
v -0.000001 27.079121 10.677888
v -0.000001 27.101891 10.775043
v -0.000001 27.138329 11.614100
v -0.000000 18.393169 11.397714
v -0.000000 17.263588 4.490921
v -0.000001 22.824959 7.979650
v 0.000000 17.181601 10.677888
v 0.000001 7.165699 10.669056
v 0.000001 12.895559 13.230400
v 0.000001 7.142900 14.608221
v 0.000000 17.054068 4.446761
v 0.000000 17.117834 4.415851
v 0.000001 8.008289 16.242180
v 0.000000 15.988249 11.353553
v 0.000001 7.142900 15.844730
v 0.000001 7.179299 16.626390
v 0.000001 7.224870 16.705881
v 0.000001 7.197499 16.692631
v 0.000001 7.161099 16.476240
v 0.000000 17.081396 10.708801
v 0.000000 17.122389 10.677888
v -0.000000 17.313690 10.761794
v -0.300001 27.074558 16.723541
v -0.300001 27.111000 16.723541
v -0.300001 27.124668 16.485069
v -0.300001 23.913549 8.650890
v -0.300001 27.120110 10.947271
v -0.300001 27.051788 10.629312
v -0.300001 27.142889 15.394291
v -0.300001 25.270880 15.619511
v -0.300001 26.965248 16.644051
v -0.300001 27.101891 10.775043
v -0.300001 27.079121 10.677888
v -0.300001 27.138329 11.614100
v -0.300000 18.393169 11.397714
v -0.300000 17.181601 10.677888
v -0.300001 22.824959 7.979650
v -0.300000 17.263586 4.490921
v -0.299999 7.142900 14.608221
v -0.299999 12.895559 13.230400
v -0.299999 7.165699 10.669056
v -0.300000 17.117834 4.415851
v -0.300000 17.054068 4.446761
v -0.299999 8.008289 16.242180
v -0.300000 15.988249 11.353553
v -0.299999 7.142900 15.844730
v -0.299999 7.197499 16.692631
v -0.299999 7.224870 16.705881
v -0.299999 7.179299 16.626390
v -0.299999 7.161099 16.476240
v -0.300000 17.081396 10.708801
v -0.300000 17.122389 10.677888
v -0.300000 17.313690 10.761794
vn 1.000000 0.000000 0.000000
vn -1.000000 -0.000000 0.000000
vn 0.000000 0.998400 0.057200
vn 0.000000 0.999900 0.016700
vn 0.000000 1.000000 -0.001200
vn 0.000000 0.999600 -0.027300
vn 0.000000 0.994500 -0.105200
vn 0.000000 0.994400 -0.105200
vn 0.000000 0.973600 -0.228200
vn 0.000000 0.871500 -0.490400
vn 0.000000 0.533300 -0.845900
vn 0.000000 0.524900 -0.851200
vn -0.000000 0.531400 -0.847100
vn -0.000000 0.457900 -0.889000
vn 0.000000 -0.436200 -0.899800
vn 0.000000 -0.436200 -0.899900
vn 0.000000 -0.532600 -0.846400
vn 0.000000 -1.000000 -0.005800
vn 0.000000 -1.000000 0.000000
vn 0.000000 -0.999600 0.028800
vn 0.000000 -0.992700 0.120300
vn 0.000000 -0.964300 0.264900
vn 0.000000 -0.436200 0.899900
vn 0.000000 0.509400 0.860600
vn 0.000000 0.524600 0.851300
vn 0.000000 0.518800 0.854900
vn 0.000000 0.508000 0.861300
vn 0.000000 0.602100 0.798400
vn 0.000000 0.000000 1.000000
vn 0.000000 -0.536200 0.844100
vn 0.000000 -0.507600 0.861600
vn 0.000000 -0.523100 0.852200
vn 0.000000 -0.517400 0.855700
vn 0.000000 -0.588100 0.808800
usemtl f2aa3d
s 1
f 63//35 64//35 65//35
f 66//35 67//35 68//35
f 69//35 70//35 71//35
f 72//35 73//35 66//35
f 66//35 73//35 67//35
f 68//35 67//35 74//35
f 75//35 68//35 70//35
f 76//35 77//35 78//35
f 79//35 80//35 81//35
f 76//35 82//35 83//35
f 81//35 80//35 84//35
f 79//35 85//35 80//35
f 84//35 86//35 81//35
f 87//35 88//35 89//35
f 87//35 90//35 88//35
f 88//35 90//35 84//35
f 75//35 77//35 68//35
f 84//35 90//35 86//35
f 79//35 82//35 85//35
f 85//35 82//35 91//35
f 91//35 82//35 92//35
f 78//35 92//35 76//35
f 92//35 82//35 76//35
f 93//35 77//35 75//35
f 78//35 77//35 93//35
f 70//35 74//35 71//35
f 68//35 74//35 70//35
f 65//35 69//35 63//35
f 69//35 71//35 63//35
f 94//36 95//36 96//36
f 97//36 98//36 99//36
f 100//36 101//36 102//36
f 99//36 103//36 104//36
f 98//36 103//36 99//36
f 105//36 98//36 97//36
f 101//36 97//36 106//36
f 107//36 108//36 109//36
f 110//36 111//36 112//36
f 113//36 114//36 109//36
f 115//36 111//36 110//36
f 111//36 116//36 112//36
f 110//36 117//36 115//36
f 118//36 119//36 120//36
f 119//36 121//36 120//36
f 115//36 121//36 119//36
f 97//36 108//36 106//36
f 117//36 121//36 115//36
f 116//36 114//36 112//36
f 122//36 114//36 116//36
f 123//36 114//36 122//36
f 109//36 123//36 107//36
f 109//36 114//36 123//36
f 106//36 108//36 124//36
f 124//36 108//36 107//36
f 100//36 105//36 101//36
f 101//36 105//36 97//36
f 96//36 102//36 94//36
f 96//36 100//36 102//36
f 63//37 95//37 64//37
f 63//37 96//37 95//37
f 71//38 96//38 63//38
f 71//38 100//38 96//38
f 74//39 100//39 71//39
f 74//39 105//39 100//39
f 67//40 105//40 74//40
f 67//40 98//40 105//40
f 73//41 98//41 67//41
f 73//41 103//42 98//41
f 72//43 103//43 73//43
f 72//43 104//43 103//43
f 66//44 104//44 72//44
f 66//44 99//44 104//44
f 68//45 99//45 66//45
f 68//45 97//45 99//45
f 77//46 97//46 68//46
f 77//46 108//46 97//46
f 76//47 108//47 77//47
f 76//47 109//47 108//47
f 83//48 109//48 76//48
f 83//48 113//48 109//48
f 82//49 113//49 83//49
f 82//49 114//50 113//49
f 79//51 114//51 82//51
f 79//51 112//51 114//51
f 81//52 112//52 79//52
f 81//52 110//52 112//52
f 86//53 110//53 81//53
f 86//53 117//53 110//53
f 90//54 117//54 86//54
f 90//54 121//54 117//54
f 87//55 121//55 90//55
f 87//55 120//55 121//55
f 89//56 120//56 87//56
f 89//56 118//56 120//56
f 88//57 118//57 89//57
f 88//57 119//57 118//57
f 84//58 119//58 88//58
f 84//58 115//58 119//58
f 80//59 115//59 84//59
f 80//59 111//59 115//59
f 85//60 111//60 80//60
f 85//60 116//60 111//60
f 91//61 116//61 85//61
f 91//61 122//61 116//61
f 92//62 122//62 91//62
f 92//62 123//62 122//62
f 78//63 123//63 92//63
f 78//63 107//63 123//63
f 93//64 107//64 78//64
f 93//64 124//64 107//64
f 75//65 124//65 93//65
f 75//65 106//65 124//65
f 70//66 106//66 75//66
f 70//66 101//66 106//66
f 69//67 101//67 70//67
f 69//67 102//67 101//67
f 65//68 102//68 69//68
f 65//68 94//68 102//68
f 64//63 94//63 65//63
f 64//63 95//63 94//63
o Polygon_2.001_Polygon_2
v -0.000001 27.124668 -1.218030
v -0.000001 27.111000 -0.979560
v -0.000001 27.074558 -0.979560
v -0.000001 27.051788 -7.073790
v -0.000001 27.120110 -6.755829
v -0.000001 23.913549 -9.052210
v -0.000001 26.965248 -1.059050
v -0.000001 25.270880 -2.083590
v -0.000001 27.142889 -2.308810
v -0.000001 27.079121 -7.025212
v -0.000001 27.101891 -6.928058
v -0.000001 27.138329 -6.089000
v -0.000000 18.393169 -6.305387
v -0.000000 17.263588 -13.212180
v -0.000001 22.824959 -9.723450
v 0.000000 17.181601 -7.025212
v 0.000001 7.165699 -7.034045
v 0.000001 12.895559 -4.472700
v 0.000001 7.142900 -3.094880
v 0.000000 17.054068 -13.256340
v 0.000000 17.117834 -13.287251
v 0.000001 8.008289 -1.460920
v 0.000000 15.988249 -6.349548
v 0.000001 7.142900 -1.858370
v 0.000001 7.179299 -1.076710
v 0.000001 7.224870 -0.997220
v 0.000001 7.197499 -1.010470
v 0.000001 7.161099 -1.226860
v 0.000000 17.081396 -6.994299
v 0.000000 17.122389 -7.025212
v -0.000000 17.313690 -6.941306
v -0.300001 27.074558 -0.979560
v -0.300001 27.111000 -0.979560
v -0.300001 27.124668 -1.218030
v -0.300001 23.913549 -9.052210
v -0.300001 27.120110 -6.755829
v -0.300001 27.051788 -7.073790
v -0.300001 27.142889 -2.308810
v -0.300001 25.270880 -2.083590
v -0.300001 26.965248 -1.059050
v -0.300001 27.101891 -6.928058
v -0.300001 27.079121 -7.025212
v -0.300001 27.138329 -6.089000
v -0.300000 18.393169 -6.305387
v -0.300000 17.181601 -7.025212
v -0.300001 22.824959 -9.723450
v -0.300000 17.263586 -13.212180
v -0.299999 7.142900 -3.094880
v -0.299999 12.895559 -4.472700
v -0.299999 7.165699 -7.034045
v -0.300000 17.117834 -13.287251
v -0.300000 17.054068 -13.256340
v -0.299999 8.008289 -1.460920
v -0.300000 15.988249 -6.349548
v -0.299999 7.142900 -1.858370
v -0.299999 7.197499 -1.010470
v -0.299999 7.224870 -0.997220
v -0.299999 7.179299 -1.076710
v -0.299999 7.161099 -1.226860
v -0.300000 17.081396 -6.994299
v -0.300000 17.122389 -7.025212
v -0.300000 17.313690 -6.941306
vn 1.000000 0.000000 0.000000
vn -1.000000 -0.000000 0.000000
vn 0.000000 0.998400 0.057200
vn 0.000000 0.999900 0.016700
vn 0.000000 1.000000 -0.001200
vn 0.000000 0.999600 -0.027300
vn 0.000000 0.994500 -0.105200
vn 0.000000 0.994400 -0.105200
vn 0.000000 0.973600 -0.228200
vn 0.000000 0.871500 -0.490400
vn 0.000000 0.533300 -0.845900
vn 0.000000 0.524900 -0.851200
vn -0.000000 0.531400 -0.847100
vn -0.000000 0.457900 -0.889000
vn 0.000000 -0.436200 -0.899800
vn 0.000000 -0.532600 -0.846400
vn 0.000000 -1.000000 -0.005800
vn 0.000000 -1.000000 0.000000
vn 0.000000 -0.999600 0.028800
vn 0.000000 -0.992700 0.120300
vn 0.000000 -0.964300 0.264900
vn 0.000000 -0.436200 0.899900
vn 0.000000 0.509400 0.860600
vn 0.000000 0.524600 0.851300
vn 0.000000 0.518800 0.854900
vn 0.000000 0.508000 0.861300
vn 0.000000 0.602100 0.798400
vn 0.000000 0.000000 1.000000
vn 0.000000 -0.536200 0.844100
vn 0.000000 -0.507600 0.861600
vn 0.000000 -0.523100 0.852200
vn 0.000000 -0.517400 0.855700
vn 0.000000 -0.588100 0.808800
usemtl f2aa3d
s 1
f 125//69 126//69 127//69
f 128//69 129//69 130//69
f 131//69 132//69 133//69
f 134//69 135//69 128//69
f 128//69 135//69 129//69
f 130//69 129//69 136//69
f 137//69 130//69 132//69
f 138//69 139//69 140//69
f 141//69 142//69 143//69
f 138//69 144//69 145//69
f 143//69 142//69 146//69
f 141//69 147//69 142//69
f 146//69 148//69 143//69
f 149//69 150//69 151//69
f 149//69 152//69 150//69
f 150//69 152//69 146//69
f 137//69 139//69 130//69
f 146//69 152//69 148//69
f 141//69 144//69 147//69
f 147//69 144//69 153//69
f 153//69 144//69 154//69
f 140//69 154//69 138//69
f 154//69 144//69 138//69
f 155//69 139//69 137//69
f 140//69 139//69 155//69
f 132//69 136//69 133//69
f 130//69 136//69 132//69
f 127//69 131//69 125//69
f 131//69 133//69 125//69
f 156//70 157//70 158//70
f 159//70 160//70 161//70
f 162//70 163//70 164//70
f 161//70 165//70 166//70
f 160//70 165//70 161//70
f 167//70 160//70 159//70
f 163//70 159//70 168//70
f 169//70 170//70 171//70
f 172//70 173//70 174//70
f 175//70 176//70 171//70
f 177//70 173//70 172//70
f 173//70 178//70 174//70
f 172//70 179//70 177//70
f 180//70 181//70 182//70
f 181//70 183//70 182//70
f 177//70 183//70 181//70
f 159//70 170//70 168//70
f 179//70 183//70 177//70
f 178//70 176//70 174//70
f 184//70 176//70 178//70
f 185//70 176//70 184//70
f 171//70 185//70 169//70
f 171//70 176//70 185//70
f 168//70 170//70 186//70
f 186//70 170//70 169//70
f 162//70 167//70 163//70
f 163//70 167//70 159//70
f 158//70 164//70 156//70
f 158//70 162//70 164//70
f 125//71 157//71 126//71
f 125//71 158//71 157//71
f 133//72 158//72 125//72
f 133//72 162//72 158//72
f 136//73 162//73 133//73
f 136//73 167//73 162//73
f 129//74 167//74 136//74
f 129//74 160//74 167//74
f 135//75 160//75 129//75
f 135//75 165//76 160//75
f 134//77 165//77 135//77
f 134//77 166//77 165//77
f 128//78 166//78 134//78
f 128//78 161//78 166//78
f 130//79 161//79 128//79
f 130//79 159//79 161//79
f 139//80 159//80 130//80
f 139//80 170//80 159//80
f 138//81 170//81 139//81
f 138//81 171//81 170//81
f 145//82 171//82 138//82
f 145//82 175//82 171//82
f 144//83 175//83 145//83
f 144//83 176//83 175//83
f 141//84 176//84 144//84
f 141//84 174//84 176//84
f 143//85 174//85 141//85
f 143//85 172//85 174//85
f 148//86 172//86 143//86
f 148//86 179//86 172//86
f 152//87 179//87 148//87
f 152//87 183//87 179//87
f 149//88 183//88 152//88
f 149//88 182//88 183//88
f 151//89 182//89 149//89
f 151//89 180//89 182//89
f 150//90 180//90 151//90
f 150//90 181//90 180//90
f 146//91 181//91 150//91
f 146//91 177//91 181//91
f 142//92 177//92 146//92
f 142//92 173//92 177//92
f 147//93 173//93 142//93
f 147//93 178//93 173//93
f 153//94 178//94 147//94
f 153//94 184//94 178//94
f 154//95 184//95 153//95
f 154//95 185//95 184//95
f 140//96 185//96 154//96
f 140//96 169//96 185//96
f 155//97 169//97 140//97
f 155//97 186//97 169//97
f 137//98 186//98 155//98
f 137//98 168//98 186//98
f 132//99 168//99 137//99
f 132//99 163//99 168//99
f 131//100 163//100 132//100
f 131//100 164//100 163//100
f 127//101 164//101 131//101
f 127//101 156//101 164//101
f 126//96 156//96 127//96
f 126//96 157//96 156//96
